<?xml version="1.0" standalone="no"?>
<!DOCTYPE svg PUBLIC "-//W3C//DTD SVG 20010904//EN"
 "http://www.w3.org/TR/2001/REC-SVG-20010904/DTD/svg10.dtd">
<svg version="1.0" xmlns="http://www.w3.org/2000/svg"
 width="390.000000pt" height="150.000000pt" viewBox="0 0 390.000000 150.000000"
 preserveAspectRatio="xMidYMid meet">

<g transform="translate(0.000000,150.000000) scale(0.100000,-0.100000)"
fill="#000000" stroke="none">
<path d="M715 1403 c-217 -27 -284 -38 -296 -51 -9 -9 -82 -124 -163 -255
l-147 -237 91 -263 c51 -144 97 -267 104 -274 6 -6 107 -68 224 -136 l213
-125 247 64 c136 35 276 72 310 81 l64 16 150 199 150 200 -52 241 c-28 133
-54 252 -57 264 -4 17 -69 58 -267 168 -144 80 -268 144 -276 144 -8 -1 -141
-17 -295 -36z m375 -42 c37 -20 139 -76 228 -126 l161 -90 -92 -6 -92 -5 108
-2 c125 -2 113 9 142 -139 15 -76 16 -94 5 -108 -11 -13 -10 -15 2 -10 17 7
16 10 48 -137 16 -76 18 -102 10 -119 -15 -28 -254 -342 -272 -356 -7 -6 -139
-44 -292 -84 -210 -55 -281 -69 -284 -60 -4 11 -6 11 -13 0 -6 -9 -12 -10 -16
-4 -5 6 -15 11 -23 13 -8 2 -84 44 -170 94 -219 127 -204 116 -188 136 12 15
11 16 -5 3 -9 -8 -19 -12 -20 -10 -2 2 -39 105 -82 229 -82 235 -94 290 -66
290 12 0 13 2 3 8 -9 6 20 62 114 213 153 247 142 233 162 217 13 -10 14 -10
8 0 -4 7 -2 12 4 12 6 0 9 4 6 8 -3 5 81 19 187 31 106 13 217 26 247 30 91
13 111 9 180 -28z"/>
<path d="M949 1343 l-34 -38 38 34 c34 33 42 41 34 41 -2 0 -19 -17 -38 -37z"/>
<path d="M520 1235 c19 -19 36 -35 39 -35 3 0 -10 16 -29 35 -19 19 -36 35
-39 35 -3 0 10 -16 29 -35z"/>
<path d="M865 1252 c-11 -9 -27 -26 -35 -36 -14 -18 -14 -18 5 -7 17 11 61 62
53 61 -2 -1 -12 -8 -23 -18z"/>
<path d="M580 1167 c0 -2 15 -16 33 -33 l32 -29 -29 33 c-28 30 -36 37 -36 29z"/>
<path d="M755 1128 l-40 -43 43 40 c23 21 42 40 42 42 0 8 -9 0 -45 -39z"/>
<path d="M669 1067 c9 -11 10 -17 2 -17 -6 0 -11 -5 -11 -12 0 -9 3 -9 12 0 9
9 16 8 31 -6 19 -16 19 -16 7 4 -7 12 -22 27 -34 34 -19 12 -20 12 -7 -3z"/>
<path d="M770 955 c19 -19 36 -35 39 -35 3 0 -10 16 -29 35 -19 19 -36 35 -39
35 -3 0 10 -16 29 -35z"/>
<path d="M1265 980 c-3 -5 -2 -10 4 -10 5 0 13 5 16 10 3 6 2 10 -4 10 -5 0
-13 -4 -16 -10z"/>
<path d="M860 855 c19 -19 36 -35 39 -35 3 0 -10 16 -29 35 -19 19 -36 35 -39
35 -3 0 10 -16 29 -35z"/>
<path d="M348 833 c7 -3 16 -2 19 1 4 3 -2 6 -13 5 -11 0 -14 -3 -6 -6z"/>
<path d="M448 823 c7 -3 16 -2 19 1 4 3 -2 6 -13 5 -11 0 -14 -3 -6 -6z"/>
<path d="M548 813 c7 -3 16 -2 19 1 4 3 -2 6 -13 5 -11 0 -14 -3 -6 -6z"/>
<path d="M955 810 c-4 -6 -10 -8 -15 -5 -4 3 -11 -2 -14 -11 -10 -25 -7 -34 9
-34 8 0 15 9 15 21 0 11 4 18 8 15 5 -3 9 1 9 9 0 18 -3 19 -12 5z"/>
<path d="M215 790 c10 -11 20 -20 23 -20 3 0 -3 9 -13 20 -10 11 -20 20 -23
20 -3 0 3 -9 13 -20z"/>
<path d="M521 764 c0 -11 3 -14 6 -6 3 7 2 16 -1 19 -3 4 -6 -2 -5 -13z"/>
<path d="M285 730 c10 -11 20 -20 23 -20 3 0 -3 9 -13 20 -10 11 -20 20 -23
20 -3 0 3 -9 13 -20z"/>
<path d="M960 736 c0 -2 8 -10 18 -17 15 -13 16 -12 3 4 -13 16 -21 21 -21 13z"/>
<path d="M1295 699 c-4 -6 -5 -13 -2 -16 7 -7 27 6 27 18 0 12 -17 12 -25 -2z"/>
<path d="M355 670 c10 -11 20 -20 23 -20 3 0 -3 9 -13 20 -10 11 -20 20 -23
20 -3 0 3 -9 13 -20z"/>
<path d="M1249 653 c-13 -16 -12 -17 4 -4 9 7 17 15 17 17 0 8 -8 3 -21 -13z"/>
<path d="M430 605 c13 -14 26 -25 28 -25 3 0 -5 11 -18 25 -13 14 -26 25 -28
25 -3 0 5 -11 18 -25z"/>
<path d="M1189 603 c-13 -16 -12 -17 4 -4 16 13 21 21 13 21 -2 0 -10 -8 -17
-17z"/>
<path d="M1060 606 c0 -2 8 -10 18 -17 15 -13 16 -12 3 4 -13 16 -21 21 -21
13z"/>
<path d="M541 574 c0 -11 3 -14 6 -6 3 7 2 16 -1 19 -3 4 -6 -2 -5 -13z"/>
<path d="M1140 565 c-7 -9 -19 -14 -27 -11 -8 4 -11 1 -8 -5 4 -6 -1 -20 -11
-32 -10 -12 1 -4 24 18 23 21 42 40 42 42 0 7 -8 2 -20 -12z"/>
<path d="M500 545 c13 -14 26 -25 28 -25 3 0 -5 11 -18 25 -13 14 -26 25 -28
25 -3 0 5 -11 18 -25z"/>
<path d="M540 509 c0 -15 18 -19 23 -6 3 8 -1 14 -9 14 -8 0 -14 -4 -14 -8z"/>
<path d="M1130 516 c0 -2 8 -10 18 -17 15 -13 16 -12 3 4 -13 16 -21 21 -21
13z"/>
<path d="M1044 458 l-19 -23 23 19 c21 18 27 26 19 26 -2 0 -12 -10 -23 -22z"/>
<path d="M1160 476 c0 -2 8 -10 18 -17 15 -13 16 -12 3 4 -13 16 -21 21 -21
13z"/>
<path d="M999 403 c-13 -16 -12 -17 4 -4 16 13 21 21 13 21 -2 0 -10 -8 -17
-17z"/>
<path d="M1230 386 c0 -2 8 -10 18 -17 15 -13 16 -12 3 4 -13 16 -21 21 -21
13z"/>
<path d="M959 353 c-13 -16 -12 -17 4 -4 16 13 21 21 13 21 -2 0 -10 -8 -17
-17z"/>
<path d="M919 303 c-13 -16 -12 -17 4 -4 16 13 21 21 13 21 -2 0 -10 -8 -17
-17z"/>
<path d="M1300 296 c0 -2 8 -10 18 -17 15 -13 16 -12 3 4 -13 16 -21 21 -21
13z"/>
<path d="M874 248 l-19 -23 23 19 c21 18 27 26 19 26 -2 0 -12 -10 -23 -22z"/>
<path d="M829 193 c-13 -16 -12 -17 4 -4 16 13 21 21 13 21 -2 0 -10 -8 -17
-17z"/>
<path d="M789 143 c-13 -16 -12 -17 4 -4 9 7 17 15 17 17 0 8 -8 3 -21 -13z"/>
<path d="M1950 766 l0 -286 45 0 45 0 0 84 0 83 108 5 c123 5 179 27 219 86
44 67 40 187 -10 240 -50 54 -91 65 -254 70 l-153 4 0 -286z m305 182 c15 -7
33 -24 41 -39 29 -57 9 -134 -41 -157 -14 -7 -68 -12 -120 -12 l-95 0 0 110 0
110 95 0 c52 0 106 -5 120 -12z"/>
<path d="M2517 1044 c-4 -4 -7 -133 -7 -286 l0 -278 50 0 50 0 -2 283 -3 282
-40 3 c-23 2 -44 0 -48 -4z"/>
<path d="M2777 1044 c-4 -4 -7 -133 -7 -286 l0 -278 170 0 170 0 0 45 0 45
-120 0 -120 0 -2 238 -3 237 -40 3 c-23 2 -44 0 -48 -4z"/>
<path d="M3388 1037 c-90 -26 -165 -93 -194 -174 -7 -21 -13 -67 -13 -103 -1
-84 29 -151 93 -207 120 -106 313 -98 421 18 59 63 77 107 77 188 1 119 -60
215 -166 262 -61 26 -155 33 -218 16z m149 -82 c173 -51 192 -289 30 -370 -82
-40 -165 -29 -231 33 -133 125 -51 332 140 351 6 1 33 -6 61 -14z"/>
</g>
</svg>
